#!OML:ASF F:\VICON\USERDATA\INSTALL\rory3\rory3.ASF
:FULLY-SPECIFIED
:DEGREES
2448
root 3.48743 17.4298 -7.74996 -7.00549 -42.1272 8.3141
lowerback 8.68694 -0.688441 -3.44569
upperback 0.186021 -1.17394 2.02549
thorax -4.57144 -0.48859 4.20357
lowerneck -18.5314 -0.306309 -11.4076
upperneck 24.1838 1.37028 5.91966
head 10.7323 0.262997 4.25871
rclavicle -4.17448e-015 9.54166e-015
rhumerus 9.30779 5.42264 -70.3483
rradius 133.119
rwrist -15.8482
rhand -16.8267 24.0143
rfingers 7.12502
rthumb 9.40251 -5.75595
lclavicle -4.17448e-015 9.54166e-015
lhumerus 6.94944 -14.8737 88.2171
lradius 126.778
lwrist 5.01683
lhand -3.12356 7.55476
lfingers 7.12502
lthumb 22.5954 36.2523
rfemur -15.4584 -3.16874 14.2103
rtibia 51.3499
rfoot -25.197 -6.52805
rtoes -3.78893
lfemur -18.3177 7.70975 -15.4037
ltibia 62.0702
lfoot -7.22198 2.64789
ltoes -18.9086
2449
root 3.49253 17.4455 -7.82387 -6.89925 -41.4331 8.07253
lowerback 8.38217 -0.68065 -3.4512
upperback 0.277782 -1.16408 1.80968
thorax -4.30944 -0.493488 3.96928
lowerneck -18.5565 -0.362547 -11.3539
upperneck 24.1599 1.24543 6.04797
head 10.7388 0.228787 4.27995
rclavicle -3.38431e-014 3.18055e-015
rhumerus 9.89998 5.39045 -70.5624
rradius 133.08
rwrist -15.5423
rhand -17.0145 23.8722
rfingers 7.12502
rthumb 9.22134 -5.90615
lclavicle -3.38431e-014 3.18055e-015
lhumerus 7.12382 -14.9453 88.0041
lradius 127.198
lwrist 4.85874
lhand -3.28002 7.59866
lfingers 7.12502
lthumb 22.4452 36.3144
rfemur -15.541 -3.63674 14.4527
rtibia 51.4781
rfoot -24.9396 -6.63056
rtoes -3.85817
lfemur -17.5391 7.85257 -15.539
ltibia 63.0871
lfoot -6.72545 2.10804
ltoes -19.5603
2450
root 3.50034 17.4565 -7.89656 -6.75916 -40.7002 7.85411
lowerback 8.10766 -0.71529 -3.51374
upperback 0.28787 -1.21344 1.65954
thorax -4.14209 -0.521988 3.8459
lowerneck -18.6105 -0.360023 -11.3872
upperneck 24.3057 1.25185 6.09783
head 10.8015 0.230471 4.31113
rclavicle 1.8487e-014 -1.43125e-014
rhumerus 10.3461 5.45171 -70.6037
rradius 133.016
rwrist -15.1426
rhand -17.211 23.7844
rfingers 7.12502
rthumb 9.03173 -6.00226
lclavicle 1.8487e-014 -1.43125e-014
lhumerus 7.09204 -14.9074 87.991
lradius 127.677
lwrist 4.67937
lhand -2.96984 7.3087
lfingers 7.12502
lthumb 22.7429 35.9882
rfemur -15.7435 -4.21272 14.6502
rtibia 51.705
rfoot -24.6457 -6.6357
rtoes -3.64101
lfemur -16.7851 7.96542 -15.6568
ltibia 63.9411
lfoot -6.22097 1.38133
ltoes -20.361
2451
root 3.5141 17.4461 -7.97135 -6.5711 -40.0133 7.53648
lowerback 7.95171 -0.743166 -3.54396
upperback 0.248916 -1.25157 1.57538
thorax -4.09287 -0.541305 3.77588
lowerneck -18.9192 -0.165103 -10.9112
upperneck 24.7804 1.55282 5.58726
head 11.0187 0.333583 4.10576
rclavicle -3.07122e-014 -4.77083e-015
rhumerus 10.6272 5.60897 -70.5429
rradius 132.992
rwrist -14.7052
rhand -17.3533 23.7945
rfingers 7.12502
rthumb 8.89439 -5.99807
lclavicle -3.07122e-014 -4.77083e-015
lhumerus 6.86345 -14.8304 88.214
lradius 128.129
lwrist 4.73273
lhand -2.06608 6.69647
lfingers 7.12502
lthumb 23.61 35.2669
rfemur -16.0383 -4.73824 14.9558
rtibia 52.0239
rfoot -24.4668 -6.66632
rtoes -2.73789
lfemur -15.9997 8.24849 -15.599
ltibia 64.6518
lfoot -5.69928 0.27857
ltoes -21.5476
2452
root 3.52878 17.4352 -8.04568 -6.4507 -39.383 7.34671
lowerback 7.78171 -0.72173 -3.64407
upperback 0.230768 -1.23149 1.44219
thorax -4.01901 -0.531783 3.68715
lowerneck -19.0129 -0.161064 -10.6628
upperneck 25.0202 1.58003 5.26309
head 11.1321 0.320188 3.95735
rclavicle 9.63112e-014 1.59028e-015
rhumerus 10.8696 5.66046 -70.5698
rradius 132.961
rwrist -14.1884
rhand -17.5958 23.8489
rfingers 7.12502
rthumb 8.66038 -5.95347
lclavicle 9.63112e-014 1.59028e-015
lhumerus 6.69401 -14.8435 88.3465
lradius 128.366
lwrist 4.45047
lhand -1.46774 6.03527
lfingers 7.12502
lthumb 24.1838 34.5306
rfemur -16.3952 -5.21141 15.1807
rtibia 52.3784
rfoot -24.2162 -6.89743
rtoes -2.62349
lfemur -15.1104 8.43943 -15.6562
ltibia 65.1345
lfoot -5.23402 -1.06456
ltoes -22.8702
2453
root 3.54182 17.4413 -8.11581 -6.30814 -38.7428 7.23035
lowerback 7.5898 -0.717657 -3.82856
upperback 0.170703 -1.2408 1.31031
thorax -3.97215 -0.53383 3.651
lowerneck -18.8441 -0.190643 -10.6632
upperneck 24.9739 1.5302 5.22209
head 11.0875 0.293134 3.93071
rclavicle -8.0309e-014 -9.54166e-015
rhumerus 11.0884 5.69419 -70.6392
rradius 132.925
rwrist -13.8421
rhand -17.7636 23.9479
rfingers 7.12502
rthumb 8.49845 -5.86112
lclavicle -8.0309e-014 -9.54166e-015
lhumerus 6.49199 -14.8401 88.3758
lradius 128.534
lwrist 3.77625
lhand -1.44296 5.5776
lfingers 7.12502
lthumb 24.2076 34.0697
rfemur -16.7806 -5.76685 15.3456
rtibia 52.7079
rfoot -23.9087 -7.21477
rtoes -3.42637
lfemur -14.1762 8.44729 -15.8386
ltibia 65.3791
lfoot -4.73519 -2.47569
ltoes -23.5031
2454
root 3.55731 17.4472 -8.18409 -6.16712 -38.1314 7.04787
lowerback 7.50398 -0.789943 -4.02945
upperback 0.123942 -1.35135 1.31417
thorax -3.95816 -0.584241 3.77878
lowerneck -18.8396 -0.150969 -10.9617
upperneck 25.0268 1.65508 5.31705
head 11.0917 0.331715 4.03532
rclavicle -8.24459e-014 1.27222e-014
rhumerus 11.4249 6.02272 -70.6242
rradius 132.839
rwrist -13.592
rhand -18.0503 24.1102
rfingers 7.12502
rthumb 8.22175 -5.70982
lclavicle -8.24459e-014 1.27222e-014
lhumerus 6.23526 -14.584 88.5561
lradius 128.736
lwrist 3.00472
lhand -1.56336 5.61424
lfingers 7.12502
lthumb 24.0921 34.1217
rfemur -17.1177 -6.41018 15.5411
rtibia 53.0186
rfoot -23.6735 -7.29947
rtoes -3.2859
lfemur -13.1552 8.49972 -15.965
ltibia 65.4541
lfoot -4.19371 -4.10117
ltoes -24.045
2455
root 3.57505 17.4455 -8.24848 -6.10239 -37.6216 6.9053
lowerback 7.39726 -0.777205 -4.13297
upperback 0.143562 -1.34135 1.24641
thorax -3.87806 -0.58028 3.76243
lowerneck -18.938 -0.194091 -11.2099
upperneck 25.1733 1.65274 5.43587
head 11.1632 0.317317 4.12793
rclavicle 1.16885e-013 7.95139e-015
rhumerus 11.6681 6.18572 -70.6891
rradius 132.786
rwrist -13.2542
rhand -18.4332 24.1967
rfingers 7.12502
rthumb 7.85222 -5.63745
lclavicle 1.16885e-013 7.95139e-015
lhumerus 6.06233 -14.5344 88.711
lradius 128.884
lwrist 2.43689
lhand -1.69317 6.07337
lfingers 7.12502
lthumb 23.9677 34.5973
rfemur -17.4331 -7.05397 15.6771
rtibia 53.34
rfoot -23.4325 -7.24868
rtoes -2.84671
lfemur -12.0174 8.72447 -16.1027
ltibia 65.3673
lfoot -3.7444 -6.02151
ltoes -25.5247
2456
root 3.59709 17.4369 -8.31338 -5.9406 -37.0579 6.67837
lowerback 7.35907 -0.643189 -4.10535
upperback 0.0440365 -1.16748 1.05264
thorax -3.98123 -0.491466 3.52736
lowerneck -18.7542 -0.336387 -10.9601
upperneck 25.3431 1.37374 5.33451
head 11.2218 0.194036 4.01166
rclavicle -6.68662e-014 -9.54166e-015
rhumerus 11.4087 5.92993 -70.8847
rradius 132.859
rwrist -12.8906
rhand -18.4112 24.247
rfingers 7.12502
rthumb 7.87351 -5.58635
lclavicle -6.68662e-014 -9.54166e-015
lhumerus 5.70884 -14.9617 88.8543
lradius 128.963
lwrist 2.21236
lhand -1.6886 6.27475
lfingers 7.12502
lthumb 23.972 34.7981
rfemur -17.846 -7.66245 15.8958
rtibia 53.7388
rfoot -23.2605 -7.28393
rtoes -2.68035
lfemur -10.9825 8.90223 -16.1491
ltibia 65.1581
lfoot -3.20877 -8.06383
ltoes -26.3233
2457
root 3.62175 17.4234 -8.38301 -5.61622 -36.4282 6.28049
lowerback 7.35419 -0.636287 -4.15331
upperback -0.0710265 -1.16417 1.03517
thorax -4.0982 -0.483813 3.53745
lowerneck -18.682 -0.378268 -10.84
upperneck 25.5355 1.28805 5.25257
head 11.2908 0.14864 3.95408
rclavicle 1.03467e-013 1.27222e-014
rhumerus 11.3121 5.99005 -70.945
rradius 132.874
rwrist -12.7161
rhand -18.6337 24.2092
rfingers 7.12502
rthumb 7.65873 -5.63213
lclavicle 1.03467e-013 1.27222e-014
lhumerus 5.43326 -15.0792 88.9921
lradius 128.925
lwrist 2.05144
lhand -1.7763 6.45481
lfingers 7.12502
lthumb 23.8879 34.9892
rfemur -18.4059 -8.27769 16.3016
rtibia 54.2441
rfoot -23.0912 -7.52827
rtoes -3.36722
lfemur -10.0691 8.95754 -16.0409
ltibia 64.8175
lfoot -2.52969 -10.1174
ltoes -26.4433
2458
root 3.64756 17.4053 -8.4538 -5.36459 -35.8181 6.05568
lowerback 7.27587 -0.723412 -4.47698
upperback -0.122403 -1.3014 1.12525
thorax -4.08656 -0.54365 3.82757
lowerneck -18.6732 -0.344114 -11.0058
upperneck 25.5853 1.39167 5.24282
head 11.298 0.176383 3.99457
rclavicle -1.61761e-014 1.11319e-014
rhumerus 11.557 6.20858 -70.8754
rradius 132.834
rwrist -12.9364
rhand -18.7465 24.1918
rfingers 7.12502
rthumb 7.54987 -5.65346
lclavicle -1.61761e-014 1.11319e-014
lhumerus 5.35919 -14.6695 89.1409
lradius 128.85
lwrist 2.08968
lhand -1.53369 6.48033
lfingers 7.12502
lthumb 24.1206 34.984
rfemur -19.0768 -8.92593 16.5331
rtibia 54.8788
rfoot -22.8734 -7.55289
rtoes -3.2349
lfemur -9.15147 8.95422 -16.1292
ltibia 64.2999
lfoot -1.89381 -12.1077
ltoes -26.9385
2459
root 3.67464 17.3827 -8.52442 -5.13715 -35.299 5.87692
lowerback 7.0921 -0.699409 -4.6352
upperback -0.0798416 -1.27617 1.05668
thorax -3.93962 -0.533471 3.83764
lowerneck -18.6879 -0.412345 -11.0476
upperneck 25.5829 1.30022 5.28342
head 11.3083 0.136854 4.00414
rclavicle -1.08387e-013 1.98785e-014
rhumerus 11.7004 6.08977 -71.0147
rradius 132.841
rwrist -13.0525
rhand -18.7964 24.3251
rfingers 7.12502
rthumb 7.50166 -5.52187
lclavicle -1.08387e-013 1.98785e-014
lhumerus 5.42319 -14.5462 89.2688
lradius 128.695
lwrist 2.30618
lhand -1.13201 6.03232
lfingers 7.12502
lthumb 24.5057 34.4844
rfemur -19.834 -9.49932 16.7218
rtibia 55.6573
rfoot -22.6044 -7.51223
rtoes -3.37987
lfemur -8.16984 9.01933 -16.2543
ltibia 63.5786
lfoot -1.38133 -14.0434
ltoes -27.8953
2460
root 3.70411 17.357 -8.59379 -4.83696 -34.7918 5.72393
lowerback 6.69668 -0.589613 -4.52077
upperback 0.0562453 -1.11087 0.756916
thorax -3.59983 -0.467948 3.43376
lowerneck -18.7292 -0.597989 -10.9387
upperneck 25.4643 0.968159 5.43502
head 11.3015 0.0223747 3.9923
rclavicle 4.72611e-014 -1.90833e-014
rhumerus 11.7616 5.61051 -71.3649
rradius 132.845
rwrist -12.8058
rhand -18.9887 24.2257
rfingers 7.12502
rthumb 7.31609 -5.62782
lclavicle 4.72611e-014 -1.90833e-014
lhumerus 5.60888 -14.9935 89.2178
lradius 128.473
lwrist 1.92494
lhand -1.14643 5.87697
lfingers 7.12502
lthumb 24.4919 34.3309
rfemur -20.7525 -9.98703 16.8862
rtibia 56.5653
rfoot -22.4277 -7.36174
rtoes -2.7369
lfemur -7.25144 9.01347 -16.4619
ltibia 62.6202
lfoot -0.751689 -15.6658
ltoes -28.4665
2461
root 3.73462 17.3238 -8.66135 -4.54162 -34.2367 5.73515
lowerback 6.29503 -0.442092 -4.5832
upperback 0.0928239 -0.910434 0.424502
thorax -3.35905 -0.376734 3.09733
lowerneck -18.6172 -0.811306 -10.8023
upperneck 25.3151 0.550278 5.65187
head 11.2606 -0.120713 3.98447
rclavicle -6.45677e-014 1.59028e-015
rhumerus 11.5773 4.93329 -71.6486
rradius 132.961
rwrist -12.6403
rhand -19.0335 24.0013
rfingers 7.12502
rthumb 7.27281 -5.85372
lclavicle -6.45677e-014 1.59028e-015
lhumerus 5.86756 -15.3141 88.9036
lradius 128.173
lwrist 1.91523
lhand -1.30061 5.71489
lfingers 7.12502
lthumb 24.344 34.1888
rfemur -21.8497 -10.4566 16.8897
rtibia 57.5934
rfoot -22.2667 -7.11779
rtoes -1.49121
lfemur -6.4323 8.90305 -16.8914
ltibia 61.4244
lfoot 0.0764002 -16.8511
ltoes -28.4599
